<mxfile host="app.diagrams.net" modified="2023-08-31T06:06:58.377Z" agent="Mozilla/5.0 (Windows NT 10.0; Win64; x64; rv:109.0) Gecko/20100101 Firefox/117.0" etag="fSea2KLrfCtm1ETJ9ZsX" version="21.6.8" type="device">
  <diagram name="Page-1" id="ogGc46JywLfQ5osAVVxm">
    <mxGraphModel dx="1839" dy="1620" grid="1" gridSize="10" guides="1" tooltips="1" connect="1" arrows="1" fold="1" page="1" pageScale="1" pageWidth="850" pageHeight="1100" math="0" shadow="0">
      <root>
        <mxCell id="0" />
        <mxCell id="1" parent="0" />
        <mxCell id="Q0LPikFlVpw9Hd0jY1vh-14" value="" style="rounded=1;whiteSpace=wrap;html=1;" vertex="1" parent="1">
          <mxGeometry x="100" y="-12.5" width="799" height="262.5" as="geometry" />
        </mxCell>
        <mxCell id="Q0LPikFlVpw9Hd0jY1vh-43" style="edgeStyle=orthogonalEdgeStyle;rounded=0;orthogonalLoop=1;jettySize=auto;html=1;" edge="1" parent="1" source="Q0LPikFlVpw9Hd0jY1vh-1" target="Q0LPikFlVpw9Hd0jY1vh-14">
          <mxGeometry relative="1" as="geometry" />
        </mxCell>
        <mxCell id="Q0LPikFlVpw9Hd0jY1vh-1" value="" style="ellipse;whiteSpace=wrap;html=1;aspect=fixed;fillColor=#000000;verticalAlign=bottom;" vertex="1" parent="1">
          <mxGeometry y="103.75" width="30" height="30" as="geometry" />
        </mxCell>
        <mxCell id="Q0LPikFlVpw9Hd0jY1vh-2" value="" style="ellipse;html=1;shape=endState;fillColor=#000000;strokeColor=#000000;" vertex="1" parent="1">
          <mxGeometry x="610" y="-88" width="30" height="30" as="geometry" />
        </mxCell>
        <mxCell id="Q0LPikFlVpw9Hd0jY1vh-4" value="Entry" style="text;html=1;strokeColor=none;fillColor=none;align=center;verticalAlign=middle;whiteSpace=wrap;rounded=0;fontFamily=Roboto Monospace;fontSource=https%3A%2F%2Ffonts.googleapis.com%2Fcss%3Ffamily%3DRoboto%2BMonospace;" vertex="1" parent="1">
          <mxGeometry x="-2.5" y="85" width="35" height="20" as="geometry" />
        </mxCell>
        <mxCell id="Q0LPikFlVpw9Hd0jY1vh-6" value="Exit" style="text;html=1;strokeColor=none;fillColor=none;align=center;verticalAlign=middle;whiteSpace=wrap;rounded=0;fontFamily=Roboto Monospace;fontSource=https%3A%2F%2Ffonts.googleapis.com%2Fcss%3Ffamily%3DRoboto%2BMonospace;" vertex="1" parent="1">
          <mxGeometry x="607.5" y="-108" width="35" height="20" as="geometry" />
        </mxCell>
        <mxCell id="Q0LPikFlVpw9Hd0jY1vh-19" style="edgeStyle=orthogonalEdgeStyle;rounded=0;orthogonalLoop=1;jettySize=auto;html=1;" edge="1" parent="1" source="Q0LPikFlVpw9Hd0jY1vh-7" target="Q0LPikFlVpw9Hd0jY1vh-8">
          <mxGeometry relative="1" as="geometry" />
        </mxCell>
        <mxCell id="Q0LPikFlVpw9Hd0jY1vh-7" value="&lt;font face=&quot;Roboto Monospace&quot;&gt;Unloaded&lt;/font&gt;" style="rounded=1;whiteSpace=wrap;html=1;" vertex="1" parent="1">
          <mxGeometry x="201" y="97.5" width="60" height="40" as="geometry" />
        </mxCell>
        <mxCell id="Q0LPikFlVpw9Hd0jY1vh-44" style="edgeStyle=orthogonalEdgeStyle;rounded=0;orthogonalLoop=1;jettySize=auto;html=1;" edge="1" parent="1" source="Q0LPikFlVpw9Hd0jY1vh-8" target="Q0LPikFlVpw9Hd0jY1vh-22">
          <mxGeometry relative="1" as="geometry" />
        </mxCell>
        <mxCell id="Q0LPikFlVpw9Hd0jY1vh-8" value="&lt;font face=&quot;Roboto Monospace&quot;&gt;Loaded&lt;/font&gt;" style="rounded=1;whiteSpace=wrap;html=1;" vertex="1" parent="1">
          <mxGeometry x="411" y="97.5" width="60" height="40" as="geometry" />
        </mxCell>
        <mxCell id="Q0LPikFlVpw9Hd0jY1vh-12" style="edgeStyle=orthogonalEdgeStyle;rounded=0;orthogonalLoop=1;jettySize=auto;html=1;entryX=0;entryY=0.5;entryDx=0;entryDy=0;" edge="1" parent="1" source="Q0LPikFlVpw9Hd0jY1vh-11" target="Q0LPikFlVpw9Hd0jY1vh-2">
          <mxGeometry relative="1" as="geometry">
            <Array as="points">
              <mxPoint x="452" y="-73" />
            </Array>
          </mxGeometry>
        </mxCell>
        <mxCell id="Q0LPikFlVpw9Hd0jY1vh-11" value="" style="ellipse;whiteSpace=wrap;html=1;aspect=fixed;" vertex="1" parent="1">
          <mxGeometry x="440" y="-25" width="25" height="25" as="geometry" />
        </mxCell>
        <mxCell id="Q0LPikFlVpw9Hd0jY1vh-10" value="" style="shape=umlDestroy;whiteSpace=wrap;html=1;strokeWidth=3;targetShapes=umlLifeline;" vertex="1" parent="1">
          <mxGeometry x="448.75" y="-17.5" width="7.5" height="10" as="geometry" />
        </mxCell>
        <mxCell id="Q0LPikFlVpw9Hd0jY1vh-13" value="&lt;font face=&quot;Roboto Monospace&quot;&gt;User Exits Page&lt;br&gt;&lt;/font&gt;" style="text;html=1;strokeColor=none;fillColor=none;align=center;verticalAlign=middle;whiteSpace=wrap;rounded=0;" vertex="1" parent="1">
          <mxGeometry x="455" y="-93" width="100" height="10" as="geometry" />
        </mxCell>
        <mxCell id="Q0LPikFlVpw9Hd0jY1vh-15" value="God Display" style="text;html=1;strokeColor=none;fillColor=none;align=center;verticalAlign=middle;whiteSpace=wrap;rounded=0;fontFamily=Roboto Monospace;fontSource=https%3A%2F%2Ffonts.googleapis.com%2Fcss%3Ffamily%3DRoboto%2BMonospace;fontStyle=1" vertex="1" parent="1">
          <mxGeometry x="120" width="100" height="20" as="geometry" />
        </mxCell>
        <mxCell id="Q0LPikFlVpw9Hd0jY1vh-18" style="edgeStyle=orthogonalEdgeStyle;rounded=0;orthogonalLoop=1;jettySize=auto;html=1;" edge="1" parent="1" source="Q0LPikFlVpw9Hd0jY1vh-16" target="Q0LPikFlVpw9Hd0jY1vh-7">
          <mxGeometry relative="1" as="geometry" />
        </mxCell>
        <mxCell id="Q0LPikFlVpw9Hd0jY1vh-16" value="" style="ellipse;whiteSpace=wrap;html=1;aspect=fixed;fillColor=#000000;verticalAlign=bottom;" vertex="1" parent="1">
          <mxGeometry x="141" y="110" width="15" height="15" as="geometry" />
        </mxCell>
        <mxCell id="Q0LPikFlVpw9Hd0jY1vh-20" value="&lt;font face=&quot;Roboto Monospace&quot;&gt;Character Selected&lt;br&gt;&lt;/font&gt;" style="text;html=1;strokeColor=none;fillColor=none;align=center;verticalAlign=middle;whiteSpace=wrap;rounded=0;" vertex="1" parent="1">
          <mxGeometry x="281" y="100" width="100" height="10" as="geometry" />
        </mxCell>
        <mxCell id="Q0LPikFlVpw9Hd0jY1vh-22" value="" style="rounded=1;whiteSpace=wrap;html=1;" vertex="1" parent="1">
          <mxGeometry x="490" y="7.5" width="390" height="220" as="geometry" />
        </mxCell>
        <mxCell id="Q0LPikFlVpw9Hd0jY1vh-25" value="Item Display Item" style="text;html=1;strokeColor=none;fillColor=none;align=center;verticalAlign=middle;whiteSpace=wrap;rounded=0;fontFamily=Roboto Monospace;fontSource=https%3A%2F%2Ffonts.googleapis.com%2Fcss%3Ffamily%3DRoboto%2BMonospace;fontStyle=1" vertex="1" parent="1">
          <mxGeometry x="520" y="27.5" width="100" height="20" as="geometry" />
        </mxCell>
        <mxCell id="Q0LPikFlVpw9Hd0jY1vh-26" style="edgeStyle=orthogonalEdgeStyle;rounded=0;orthogonalLoop=1;jettySize=auto;html=1;" edge="1" parent="1" source="Q0LPikFlVpw9Hd0jY1vh-27">
          <mxGeometry relative="1" as="geometry">
            <mxPoint x="790" y="77.5" as="targetPoint" />
          </mxGeometry>
        </mxCell>
        <mxCell id="Q0LPikFlVpw9Hd0jY1vh-27" value="&lt;font face=&quot;Roboto Monospace&quot;&gt;Unloaded&lt;/font&gt;" style="rounded=1;whiteSpace=wrap;html=1;" vertex="1" parent="1">
          <mxGeometry x="580" y="57.5" width="60" height="40" as="geometry" />
        </mxCell>
        <mxCell id="Q0LPikFlVpw9Hd0jY1vh-29" style="edgeStyle=orthogonalEdgeStyle;rounded=0;orthogonalLoop=1;jettySize=auto;html=1;" edge="1" parent="1" source="Q0LPikFlVpw9Hd0jY1vh-30" target="Q0LPikFlVpw9Hd0jY1vh-27">
          <mxGeometry relative="1" as="geometry" />
        </mxCell>
        <mxCell id="Q0LPikFlVpw9Hd0jY1vh-30" value="" style="ellipse;whiteSpace=wrap;html=1;aspect=fixed;fillColor=#000000;verticalAlign=bottom;" vertex="1" parent="1">
          <mxGeometry x="520" y="70" width="15" height="15" as="geometry" />
        </mxCell>
        <mxCell id="Q0LPikFlVpw9Hd0jY1vh-31" value="&lt;font face=&quot;Roboto Monospace&quot;&gt;Character Selected&lt;br&gt;&lt;/font&gt;" style="text;html=1;strokeColor=none;fillColor=none;align=center;verticalAlign=middle;whiteSpace=wrap;rounded=0;" vertex="1" parent="1">
          <mxGeometry x="660" y="60" width="100" height="10" as="geometry" />
        </mxCell>
        <mxCell id="Q0LPikFlVpw9Hd0jY1vh-33" style="edgeStyle=orthogonalEdgeStyle;rounded=0;orthogonalLoop=1;jettySize=auto;html=1;entryX=0.5;entryY=1;entryDx=0;entryDy=0;" edge="1" parent="1" source="Q0LPikFlVpw9Hd0jY1vh-32" target="Q0LPikFlVpw9Hd0jY1vh-27">
          <mxGeometry relative="1" as="geometry">
            <Array as="points">
              <mxPoint x="805" y="117.5" />
              <mxPoint x="610" y="117.5" />
            </Array>
          </mxGeometry>
        </mxCell>
        <mxCell id="Q0LPikFlVpw9Hd0jY1vh-35" style="edgeStyle=orthogonalEdgeStyle;rounded=0;orthogonalLoop=1;jettySize=auto;html=1;" edge="1" parent="1" source="Q0LPikFlVpw9Hd0jY1vh-32" target="Q0LPikFlVpw9Hd0jY1vh-34">
          <mxGeometry relative="1" as="geometry">
            <Array as="points">
              <mxPoint x="835" y="77.5" />
            </Array>
          </mxGeometry>
        </mxCell>
        <mxCell id="Q0LPikFlVpw9Hd0jY1vh-32" value="" style="rhombus;whiteSpace=wrap;html=1;" vertex="1" parent="1">
          <mxGeometry x="790" y="63.75" width="30" height="27.5" as="geometry" />
        </mxCell>
        <mxCell id="Q0LPikFlVpw9Hd0jY1vh-38" style="edgeStyle=orthogonalEdgeStyle;rounded=0;orthogonalLoop=1;jettySize=auto;html=1;" edge="1" parent="1" source="Q0LPikFlVpw9Hd0jY1vh-34" target="Q0LPikFlVpw9Hd0jY1vh-27">
          <mxGeometry relative="1" as="geometry" />
        </mxCell>
        <mxCell id="Q0LPikFlVpw9Hd0jY1vh-34" value="&lt;font face=&quot;Roboto Monospace&quot;&gt;Loaded&lt;/font&gt;" style="rounded=1;whiteSpace=wrap;html=1;" vertex="1" parent="1">
          <mxGeometry x="805" y="147.5" width="60" height="40" as="geometry" />
        </mxCell>
        <mxCell id="Q0LPikFlVpw9Hd0jY1vh-36" value="&lt;font face=&quot;Roboto Monospace&quot;&gt;else&lt;/font&gt;" style="text;html=1;strokeColor=none;fillColor=none;align=center;verticalAlign=middle;whiteSpace=wrap;rounded=0;" vertex="1" parent="1">
          <mxGeometry x="695" y="100.5" width="30" height="14" as="geometry" />
        </mxCell>
        <mxCell id="Q0LPikFlVpw9Hd0jY1vh-37" value="&lt;div&gt;&lt;font face=&quot;Roboto Monospace&quot;&gt;Item&lt;/font&gt;&lt;/div&gt;&lt;div&gt;&lt;font face=&quot;Roboto Monospace&quot;&gt;Selected&lt;br&gt;&lt;/font&gt;&lt;/div&gt;" style="text;html=1;strokeColor=none;fillColor=none;align=center;verticalAlign=middle;whiteSpace=wrap;rounded=0;" vertex="1" parent="1">
          <mxGeometry x="835" y="57.5" width="30" height="10" as="geometry" />
        </mxCell>
        <mxCell id="Q0LPikFlVpw9Hd0jY1vh-39" value="Item Removed" style="text;html=1;strokeColor=none;fillColor=none;align=center;verticalAlign=middle;whiteSpace=wrap;rounded=0;fontFamily=Roboto Monospace;fontSource=https%3A%2F%2Ffonts.googleapis.com%2Fcss%3Ffamily%3DRoboto%2BMonospace;" vertex="1" parent="1">
          <mxGeometry x="665" y="172.5" width="90" height="10" as="geometry" />
        </mxCell>
        <mxCell id="Q0LPikFlVpw9Hd0jY1vh-48" style="edgeStyle=orthogonalEdgeStyle;rounded=0;orthogonalLoop=1;jettySize=auto;html=1;entryX=0.5;entryY=1;entryDx=0;entryDy=0;strokeColor=#1E6ED6;" edge="1" parent="1" source="Q0LPikFlVpw9Hd0jY1vh-45" target="Q0LPikFlVpw9Hd0jY1vh-7">
          <mxGeometry relative="1" as="geometry" />
        </mxCell>
        <mxCell id="Q0LPikFlVpw9Hd0jY1vh-45" value="" style="ellipse;whiteSpace=wrap;html=1;aspect=fixed;strokeColor=#1E6ED6;" vertex="1" parent="1">
          <mxGeometry x="480" y="165" width="25" height="25" as="geometry" />
        </mxCell>
        <mxCell id="Q0LPikFlVpw9Hd0jY1vh-46" value="" style="shape=umlDestroy;whiteSpace=wrap;html=1;strokeWidth=3;targetShapes=umlLifeline;strokeColor=#1E6ED6;" vertex="1" parent="1">
          <mxGeometry x="488.75" y="172.5" width="7.5" height="10" as="geometry" />
        </mxCell>
        <mxCell id="Q0LPikFlVpw9Hd0jY1vh-49" value="&lt;font face=&quot;Roboto Monospace&quot;&gt;Character Removed&lt;br&gt;&lt;/font&gt;" style="text;html=1;strokeColor=#FFFFFF;fillColor=none;align=center;verticalAlign=middle;whiteSpace=wrap;rounded=0;fontColor=#1E6ED6;" vertex="1" parent="1">
          <mxGeometry x="300" y="182.5" width="100" height="10" as="geometry" />
        </mxCell>
      </root>
    </mxGraphModel>
  </diagram>
</mxfile>
